#!OML:ASF E:\Mandelcareful walks\Project 1\Capture day 1\Session 1\Subject1.ASF
:FULLY-SPECIFIED
:DEGREES
604
root 17.8367 15.3688 -0.112149 398.833 -96.9879 -31.9009
lowerback 27.124 2.38873 -7.15275
upperback 11.219 -0.0600096 -2.89276
thorax -2.48887 -0.654095 0.957991
lowerneck -10.9094 4.63894 5.40005
upperneck 34.9397 4.6057 -2.27154
head 13.8935 1.96272 -1.28727
rclavicle 3.10104e-014 7.79236e-014
rhumerus 71.4076 -62.9819 -59.4406
rradius 136.46
rwrist -116.321
rhand 41.7863 -67.3775
rfingers 7.12502
rthumb 63.8584 283.653
lclavicle 3.10104e-014 7.79236e-014
lhumerus 36.3807 17.9367 17.0845
lradius 133.178
lwrist -23.934
lhand -56.3295 92.2836
lfingers 7.12502
lthumb -28.6511 -64.4604
rfemur -43.5395 -19.2624 9.13225
rtibia 79.7818
rfoot -14.6554 -8.79358
rtoes -6.18162
lfemur -27.89 11.4056 -21.4808
ltibia 61.335
lfoot -32.6615 8.0348
ltoes -5.93302
605
root 17.2421 15.3389 -0.0790429 398.162 -97.2586 -31.3614
lowerback 27.2136 2.14147 -7.60386
upperback 11.1461 -0.494733 -2.85034
thorax -2.57432 -0.87757 1.3838
lowerneck -11.1015 4.83503 6.62821
upperneck 34.7988 5.19727 -4.09446
head 14.0143 2.14114 -2.14393
rclavicle -3.18055e-015 -5.56597e-015
rhumerus 70.6255 -62.6568 -58.5281
rradius 137.191
rwrist -115.796
rhand 42.3247 -66.4
rfingers 7.12502
rthumb 64.292 285.287
lclavicle -3.18055e-015 -5.56597e-015
lhumerus 35.975 16.745 17.5446
lradius 132.51
lwrist -27.0586
lhand -57.9725 94.1594
lfingers 7.12502
lthumb -30.2197 -66.6122
rfemur -46.6244 -18.9216 10.3874
rtibia 77.0835
rfoot -15.1242 -8.05367
rtoes -7.28508
lfemur -24.6286 11.9466 -21.595
ltibia 60.4345
lfoot -34.2184 8.13077
ltoes -6.53416
606
root 16.626 15.3431 -0.0558444 398.959 -97.5584 -32.2764
lowerback 27.3124 1.86339 -8.11116
upperback 10.9618 -0.9795 -2.84074
thorax -2.77502 -1.11283 1.82225
lowerneck -10.3131 4.91398 6.77849
upperneck 34.1439 5.60899 -4.97987
head 13.6107 2.2351 -2.46318
rclavicle 2.94201e-014 1.82882e-014
rhumerus 69.9172 -62.3051 -57.6992
rradius 137.779
rwrist -115.764
rhand 43.0505 -65.587
rfingers 7.12502
rthumb 64.8705 287.022
lclavicle 2.94201e-014 1.82882e-014
lhumerus 35.5868 15.7562 17.8855
lradius 134.127
lwrist -23.9346
lhand -53.5094 90.5948
lfingers 7.12502
lthumb -25.9537 -62.3467
rfemur -49.3717 -18.5757 11.4519
rtibia 73.4149
rfoot -14.5298 -6.6747
rtoes -10.9734
lfemur -21.082 12.454 -21.8298
ltibia 58.9322
lfoot -34.8063 8.46784
ltoes -8.70553
607
root 15.991 15.3823 -0.0406263 400.21 -97.7792 -33.523
lowerback 27.4552 1.50826 -8.31872
upperback 10.6984 -1.48932 -2.86576
thorax -3.08664 -1.33822 2.06507
lowerneck -10.0135 5.08461 6.83769
upperneck 33.9732 6.07006 -5.67967
head 13.5346 2.35352 -2.68776
rclavicle 1.82882e-014 2.62396e-014
rhumerus 69.031 -62.1336 -56.7095
rradius 138.501
rwrist -115.645
rhand 43.8073 -64.289
rfingers 7.12502
rthumb 65.466 289.329
lclavicle 1.82882e-014 2.62396e-014
lhumerus 35.2747 15.4625 18.5448
lradius 134.701
lwrist -22.5985
lhand -51.3118 93.296
lfingers 7.12502
lthumb -23.8476 -64.7563
rfemur -51.4306 -18.1997 12.475
rtibia 68.785
rfoot -13.2527 -4.51956
rtoes -13.5523
lfemur -17.5427 12.5927 -21.8659
ltibia 57.1985
lfoot -34.5315 8.17539
ltoes -9.01317
608
root 15.336 15.4493 -0.0363185 401.011 -97.9852 -34.1468
lowerback 26.8807 1.12421 -8.22322
upperback 10.825 -1.88599 -2.92991
thorax -2.64569 -1.54801 2.03814
lowerneck -9.91163 5.33649 6.40931
upperneck 33.2995 6.49866 -5.46369
head 13.2243 2.53067 -2.44547
rclavicle -3.97569e-015 1.19271e-014
rhumerus 69.2826 -62.411 -56.5655
rradius 139.172
rwrist -115.067
rhand 44.5744 -62.3725
rfingers 7.12502
rthumb 66.0608 292.322
lclavicle -3.97569e-015 1.19271e-014
lhumerus 35.042 15.7144 19.0636
lradius 134.973
lwrist -21.7952
lhand -49.7397 97.1736
lfingers 7.12502
lthumb -22.3393 -68.445
rfemur -53.0174 -17.7288 13.5721
rtibia 63.4367
rfoot -10.7489 -2.40533
rtoes -14.817
lfemur -13.9623 12.7313 -21.7156
ltibia 55.1061
lfoot -32.9183 8.21233
ltoes -9.75599
